<svg width="16" height="17" viewBox="0 0 16 17" fill="none" xmlns="http://www.w3.org/2000/svg">
<g clip-path="url(#clip0_53_512)">
<path d="M7.99992 11.1667C9.47268 11.1667 10.6666 9.97276 10.6666 8.5C10.6666 7.02724 9.47268 5.83333 7.99992 5.83333C6.52716 5.83333 5.33325 7.02724 5.33325 8.5C5.33325 9.97276 6.52716 11.1667 7.99992 11.1667Z" stroke="black" stroke-width="2" stroke-linecap="round" stroke-linejoin="round"/>
<path d="M10.6666 5.83333V9.16667C10.6666 9.6971 10.8773 10.2058 11.2524 10.5809C11.6275 10.956 12.1362 11.1667 12.6666 11.1667C13.197 11.1667 13.7057 10.956 14.0808 10.5809C14.4559 10.2058 14.6666 9.6971 14.6666 9.16667V8.5C14.6666 6.9982 14.1595 5.5404 13.2275 4.36278C12.2955 3.18516 10.9932 2.35672 9.53161 2.01167C8.06999 1.66663 6.53468 1.82521 5.17444 2.4617C3.81419 3.0982 2.7087 4.17533 2.03708 5.51858C1.36545 6.86182 1.16704 8.39249 1.47399 9.86259C1.78094 11.3327 2.57527 12.6561 3.72828 13.6183C4.88128 14.5806 6.32542 15.1254 7.82671 15.1644C9.328 15.2034 10.7985 14.7344 11.9999 13.8333" stroke="black" stroke-width="2" stroke-linecap="round" stroke-linejoin="round"/>
</g>
<defs>
<clipPath id="clip0_53_512">
<rect width="16" height="16" fill="white" transform="translate(0 0.5)"/>
</clipPath>
</defs>
</svg>
