<svg width="68" height="54" viewBox="0 0 68 54" fill="none" xmlns="http://www.w3.org/2000/svg">
<path d="M10.961 21.209H1.299C1.22116 21.209 1.18224 21.1604 1.18224 21.0631L1.21143 0.527646C1.21143 0.449805 1.25035 0.410884 1.32819 0.410884H10.9318C11.0097 0.410884 11.0486 0.459535 11.0486 0.556836V3.89913C11.0486 3.97697 11.0097 4.01589 10.9318 4.01589H4.80184V8.68635H10.9318C11.0097 8.68635 11.0486 8.72527 11.0486 8.80311L11.0778 12.1892C11.0778 12.267 11.0388 12.3059 10.961 12.3059H4.80184V17.531H10.961C11.0388 17.531 11.0778 17.5797 11.0778 17.677V21.0922C11.0778 21.1701 11.0388 21.209 10.961 21.209Z" fill="white"/>
<path d="M19.2073 21.209H13.8508C13.773 21.209 13.7341 21.1604 13.7341 21.0631L13.7925 0.527646C13.7925 0.449805 13.8314 0.410884 13.9092 0.410884H19.6597C20.7787 0.410884 21.7955 0.683327 22.7101 1.22821C23.6053 1.7731 24.3107 2.49799 24.8264 3.40289C25.3421 4.29806 25.6 5.27108 25.6 6.32193C25.6 7.17818 25.4054 7.97605 25.0161 8.71554C24.6269 9.45502 24.1648 10.0534 23.6296 10.5107C24.2037 11.0848 24.6513 11.7513 24.9724 12.5103C25.2935 13.2692 25.454 14.0671 25.454 14.9039C25.454 16.0618 25.1767 17.1175 24.6221 18.071C24.0577 19.0246 23.3036 19.7884 22.3598 20.3625C21.416 20.9268 20.3652 21.209 19.2073 21.209ZM19.6597 3.95751H17.3829V8.65716H19.6597C20.3506 8.65716 20.91 8.4139 21.3382 7.9274C21.7663 7.43116 21.9804 6.89601 21.9804 6.32193C21.9804 5.68947 21.7517 5.13972 21.2944 4.67267C20.8371 4.1959 20.2922 3.95751 19.6597 3.95751ZM19.2073 12.2768H17.3829L17.3537 17.5602H19.2073C19.9273 17.5602 20.5452 17.2975 21.0609 16.7721C21.5766 16.2466 21.8344 15.6239 21.8344 14.9039C21.8344 14.1839 21.5766 13.566 21.0609 13.0503C20.5452 12.5346 19.9273 12.2768 19.2073 12.2768Z" fill="white"/>
<path d="M33.1311 21.5009C32.0705 21.5009 31.0926 21.2285 30.1974 20.6836C29.312 20.1387 28.5968 19.4138 28.0519 18.5089C27.5168 17.5943 27.2492 16.5921 27.2492 15.5023L27.2784 6.03003C27.2784 4.92079 27.546 3.92346 28.0811 3.03801C28.6066 2.14284 29.3169 1.42768 30.212 0.892525C31.1072 0.347638 32.0802 0.0751953 33.1311 0.0751953C34.2208 0.0751953 35.1987 0.342773 36.0647 0.87793C36.9404 1.41309 37.641 2.13311 38.1664 3.03801C38.7016 3.93319 38.9691 4.93052 38.9691 6.03003L38.9983 15.5023C38.9983 16.5921 38.7356 17.5894 38.2102 18.4943C37.675 19.4089 36.9647 20.1387 36.0793 20.6836C35.1938 21.2285 34.2111 21.5009 33.1311 21.5009ZM33.1311 17.8959C33.7343 17.8959 34.2598 17.6526 34.7073 17.1661C35.1549 16.6699 35.3787 16.1153 35.3787 15.5023L35.3495 6.03003C35.3495 5.36838 35.1403 4.8089 34.7219 4.35158C34.3035 3.89426 33.7733 3.66561 33.1311 3.66561C32.5181 3.66561 31.9926 3.8894 31.5548 4.33699C31.1169 4.78457 30.898 5.34892 30.898 6.03003V15.5023C30.898 16.1542 31.1169 16.7186 31.5548 17.1953C31.9926 17.6624 32.5181 17.8959 33.1311 17.8959Z" fill="white"/>
<path d="M46.7921 21.5009C45.7316 21.5009 44.7537 21.2285 43.8585 20.6836C42.9731 20.1387 42.2579 19.4138 41.713 18.5089C41.1779 17.5943 40.9103 16.5921 40.9103 15.5023L40.9395 6.03003C40.9395 4.92079 41.2071 3.92346 41.7422 3.03801C42.2676 2.14284 42.9779 1.42768 43.8731 0.892525C44.7683 0.347638 45.7413 0.0751953 46.7921 0.0751953C47.8819 0.0751953 48.8598 0.342773 49.7258 0.87793C50.6015 1.41309 51.3021 2.13311 51.8275 3.03801C52.3626 3.93319 52.6302 4.93052 52.6302 6.03003L52.6594 15.5023C52.6594 16.5921 52.3967 17.5894 51.8713 18.4943C51.3361 19.4089 50.6258 20.1387 49.7404 20.6836C48.8549 21.2285 47.8722 21.5009 46.7921 21.5009ZM46.7921 17.8959C47.3954 17.8959 47.9208 17.6526 48.3684 17.1661C48.816 16.6699 49.0398 16.1153 49.0398 15.5023L49.0106 6.03003C49.0106 5.36838 48.8014 4.8089 48.383 4.35158C47.9646 3.89426 47.4343 3.66561 46.7921 3.66561C46.1791 3.66561 45.6537 3.8894 45.2159 4.33699C44.778 4.78457 44.5591 5.34892 44.5591 6.03003V15.5023C44.5591 16.1542 44.778 16.7186 45.2159 17.1953C45.6537 17.6624 46.1791 17.8959 46.7921 17.8959Z" fill="white"/>
<path d="M58.4245 21.209H55.0384C54.9606 21.209 54.9217 21.1604 54.9217 21.0631L54.98 0.556836C54.98 0.459535 55.019 0.410884 55.0968 0.410884H58.4537C58.5315 0.410884 58.5704 0.459535 58.5704 0.556836V7.63549L63.2555 0.527646C63.3333 0.449805 63.4063 0.410884 63.4744 0.410884H66.9043C66.9919 0.410884 67.0113 0.449805 66.9627 0.527646L61.796 8.77392L67.5903 21.0922C67.6389 21.1701 67.5903 21.209 67.4443 21.209H63.7955C63.6982 21.209 63.6398 21.1701 63.6204 21.0922L59.5775 12.3059L58.5413 13.9406V21.0631C58.5413 21.1604 58.5023 21.209 58.4245 21.209Z" fill="white"/>
<path d="M6.26135 53.0827C5.20077 53.0827 4.2229 52.8103 3.32773 52.2654C2.44229 51.7205 1.73199 50.9956 1.19683 50.0907C0.671404 49.1761 0.408691 48.1739 0.408691 47.0841V45.7122C0.408691 45.6051 0.457342 45.5516 0.554643 45.5516H3.91153C3.98937 45.5516 4.02829 45.6051 4.02829 45.7122V47.0841C4.02829 47.736 4.24722 48.3004 4.68508 48.7771C5.12293 49.2442 5.64836 49.4777 6.26135 49.4777C6.88408 49.4777 7.41437 49.2393 7.85223 48.7626C8.29008 48.276 8.50901 47.7166 8.50901 47.0841C8.50901 46.3543 8.03224 45.717 7.07868 45.1721C6.923 45.0748 6.71867 44.9581 6.46569 44.8219C6.22243 44.6759 5.93053 44.5105 5.58998 44.3256C5.24942 44.1408 4.9186 43.9607 4.59751 43.7856C4.27641 43.6007 3.96505 43.4256 3.66341 43.2602C2.57364 42.618 1.76118 41.8153 1.22602 40.852C0.700595 39.879 0.437882 38.7892 0.437882 37.5827C0.437882 36.4734 0.710325 35.4712 1.25521 34.576C1.8001 33.6906 2.5104 32.99 3.38611 32.4743C4.27155 31.9489 5.22996 31.6862 6.26135 31.6862C7.32194 31.6862 8.29495 31.9489 9.18039 32.4743C10.0658 33.0095 10.7713 33.7198 11.2967 34.6052C11.8318 35.4907 12.0994 36.4832 12.0994 37.5827V40.0346C12.0994 40.1125 12.0605 40.1514 11.9827 40.1514H8.62577C8.54793 40.1514 8.50901 40.1125 8.50901 40.0346L8.47982 37.5827C8.47982 36.8821 8.26089 36.3129 7.82304 35.875C7.38518 35.4372 6.86462 35.2182 6.26135 35.2182C5.64836 35.2182 5.12293 35.4518 4.68508 35.9188C4.24722 36.3858 4.02829 36.9405 4.02829 37.5827C4.02829 38.2346 4.16452 38.7795 4.43696 39.2173C4.71913 39.6552 5.22996 40.0736 5.96945 40.4725C6.04729 40.5114 6.2273 40.6087 6.50947 40.7644C6.79165 40.9201 7.10301 41.0952 7.44356 41.2898C7.79385 41.4747 8.11008 41.645 8.39225 41.8007C8.67442 41.9466 8.8447 42.0342 8.90308 42.0634C9.89555 42.618 10.6788 43.2991 11.2529 44.1067C11.8367 44.9143 12.1286 45.9068 12.1286 47.0841C12.1286 48.2225 11.8659 49.2442 11.3405 50.1491C10.8053 51.054 10.095 51.7692 9.20958 52.2946C8.32414 52.82 7.3414 53.0827 6.26135 53.0827Z" fill="white"/>
<path d="M17.704 52.7908H14.3179C14.24 52.7908 14.2011 52.7422 14.2011 52.6449L14.2303 32.1095C14.2303 32.0316 14.279 31.9927 14.3763 31.9927H17.704C17.8013 31.9927 17.8499 32.0316 17.8499 32.1095L17.8207 40.239H22.3014V32.1095C22.3014 32.0316 22.3404 31.9927 22.4182 31.9927H25.7459C25.8432 31.9927 25.8919 32.0316 25.8919 32.1095L25.9502 52.6449C25.9502 52.7422 25.9016 52.7908 25.8043 52.7908H22.4474C22.3501 52.7908 22.3014 52.7422 22.3014 52.6449V43.8586H17.8207V52.6449C17.8207 52.7422 17.7818 52.7908 17.704 52.7908Z" fill="white"/>
<path d="M38.1664 52.7908H28.5044C28.4266 52.7908 28.3876 52.7422 28.3876 52.6449L28.4168 32.1095C28.4168 32.0316 28.4557 31.9927 28.5336 31.9927H38.1372C38.215 31.9927 38.254 32.0414 38.254 32.1387V35.4809C38.254 35.5588 38.215 35.5977 38.1372 35.5977H32.0072V40.2682H38.1372C38.215 40.2682 38.254 40.3071 38.254 40.3849L38.2832 43.771C38.2832 43.8488 38.2442 43.8878 38.1664 43.8878H32.0072V49.1128H38.1664C38.2442 49.1128 38.2832 49.1615 38.2832 49.2588V52.6741C38.2832 52.7519 38.2442 52.7908 38.1664 52.7908Z" fill="white"/>
<path d="M50.7182 52.7908H41.0562C40.9784 52.7908 40.9395 52.7422 40.9395 52.6449L40.9687 32.1387C40.9687 32.0414 41.0173 31.9927 41.1146 31.9927H44.4423C44.5396 31.9927 44.5883 32.0414 44.5883 32.1387L44.5591 49.1128H50.7182C50.8155 49.1128 50.8642 49.1615 50.8642 49.2588V52.6449C50.8642 52.7422 50.8155 52.7908 50.7182 52.7908Z" fill="white"/>
<path d="M56.3228 52.7908H52.9659C52.8686 52.7908 52.8199 52.7422 52.8199 52.6449L52.8783 32.1095C52.8783 32.0316 52.9172 31.9927 52.9951 31.9927H62.5695C62.6668 31.9927 62.7155 32.0316 62.7155 32.1095V35.4809C62.7155 35.5588 62.6766 35.5977 62.5987 35.5977H56.4687V40.239H62.5987C62.6766 40.239 62.7155 40.2876 62.7155 40.3849L62.7447 43.771C62.7447 43.8488 62.696 43.8878 62.5987 43.8878H56.4687V52.6449C56.4687 52.7422 56.4201 52.7908 56.3228 52.7908Z" fill="white"/>
</svg>
